<svg xmlns="http://www.w3.org/2000/svg" viewBox="-4.8762681 -4.8762681 345.8423762 172.2948062">
    <path d="M185.553 145.484c-6.01 0-9.002 4.058-9.002 8.529 0 4.47 2.991 8.53 9.002 8.53 5.984 0 8.978-4.06 8.978-8.53s-2.994-8.53-8.978-8.53zm-42.819.343V162.2h1.815v-7.27h6.894c3.447-.114 3.66 2.432 3.82 4.724.054.689.053 1.904.507 2.546h2.005c-.8-.825-.8-3.073-.88-4.197-.135-1.95-.857-3.415-3.342-3.691v-.045c2.458-.412 3.715-2.111 3.715-4.174 0-2.959-2.647-4.266-5.8-4.266zm-68.17.002V162.2H87.87v-1.33H76.383v-6.466h10.633v-1.33H76.383v-5.917h11.351v-1.328zm32.668 0v10.479c0 3.37 2.112 6.234 7.403 6.234 5.316 0 7.427-2.865 7.427-6.234v-10.479h-1.818v10.135c.028 3.807-2.083 5.25-5.61 5.25-3.5 0-5.61-1.443-5.585-5.25V145.83zm107.143 0v16.37h1.816v-7.016h6.653c3.418 0 5.664-1.72 5.664-4.678 0-2.957-2.246-4.676-5.664-4.676zm33.844 0V162.2h13.304v-1.33h-11.488v-6.466h10.633v-1.329h-10.633v-5.917h11.354v-1.329zm-62.666.985c5.022 0 7.16 3.623 7.16 7.199 0 3.577-2.138 7.201-7.16 7.201-5.05 0-7.186-3.624-7.186-7.201 0-3.576 2.136-7.2 7.186-7.2zm30.638.344h6.252c2.512 0 4.248 1.1 4.248 3.347s-1.736 3.35-4.248 3.35h-6.252zm-71.642.002h6.787c2.724 0 4.115 1.26 4.115 3.253 0 1.996-1.9 3.188-4.115 3.188h-6.787zM10.893 102.331c-5.24 0-10.819 2.263-10.819 8.293 0 2.902 1.019 5.994 6.635 7.426l6.97 1.77c2.113.528 2.64 1.734 2.64 2.828 0 1.808-1.771 3.58-4.975 3.58-6.258 0-5.39-4.9-8.744-4.9-1.508 0-2.6 1.055-2.6 2.562 0 2.94 3.504 6.861 11.344 6.861 7.462 0 11.156-3.656 11.156-8.556 0-3.166-1.43-6.521-7.084-7.801l-5.164-1.17c-1.96-.452-4.223-1.056-4.223-2.94 0-1.885 1.586-3.203 4.45-3.203 5.766 0 5.237 4.032 8.101 4.032 1.508 0 2.828-.904 2.828-2.45 0-3.618-5.691-6.332-10.515-6.332zm58.873 0c-8.896 0-13.72 5.917-13.72 13.87 0 8.218 3.996 14.55 13.72 14.55 9.272 0 13.72-6.899 13.72-14.55 0-7.953-4.824-13.87-13.72-13.87zm118.912 0c-8.895 0-13.717 5.917-13.717 13.87 0 8.218 3.993 14.55 13.717 14.55 9.272 0 13.72-6.899 13.72-14.55 0-7.953-4.824-13.87-13.72-13.87zm-158.112.15c-1.885 0-3.09 1.246-3.09 3.092v21.936c0 1.847 1.205 3.09 3.09 3.09 1.884 0 3.092-1.243 3.092-3.09v-9.045h11.23v9.045c0 1.847 1.208 3.09 3.092 3.09 1.884 0 3.09-1.243 3.09-3.09v-21.936c0-1.846-1.206-3.091-3.09-3.091s-3.091 1.245-3.091 3.091v7.688h-11.23v-7.688c0-1.846-1.209-3.091-3.093-3.091zm102.106 0c-1.507 0-2.488.491-3.018 1.887l-7.988 21.143c-.227.603-.604 1.698-.604 2.375 0 1.659 1.168 2.713 2.866 2.713 1.47 0 2.336-.49 2.75-1.695l1.62-4.524h9.952l1.582 4.524c.453 1.205 1.432 1.695 2.79 1.695 1.582 0 2.901-1.205 2.901-2.713 0-.677-.376-1.772-.601-2.375l-7.465-20.768c-.679-1.922-1.921-2.261-3.314-2.261zm102.478 0c-1.885 0-3.09 1.246-3.09 3.092v21.936c0 1.847 1.205 3.09 3.09 3.09 1.884 0 3.092-1.243 3.092-3.09v-9.045h11.233v9.045c0 1.847 1.205 3.09 3.09 3.09 1.883 0 3.09-1.243 3.09-3.09v-21.936c0-1.846-1.207-3.091-3.09-3.091-1.885 0-3.09 1.245-3.09 3.091v7.688h-11.233v-7.688c0-1.846-1.208-3.091-3.092-3.091zm56.05 0c-1.886 0-3.093 1.246-3.093 3.092v21.936c0 1.847 1.207 3.09 3.092 3.09 1.884 0 3.09-1.243 3.09-3.09v-6.143l3.393-3.392 7.123 11.006c.829 1.318 1.509 1.619 2.752 1.619 1.469 0 3.164-.677 3.164-2.977 0-.792-.602-1.583-1.166-2.45l-7.502-11.419 6.332-6.672c.528-.528 1.015-1.17 1.015-2.111 0-1.584-1.466-2.488-2.935-2.488-1.093 0-1.735.604-2.451 1.357l-9.725 10.705v-8.97c0-1.847-1.206-3.092-3.09-3.092zm-199.12.49c-2.188 0-3.62.868-3.62 3.62v20.918c0 1.847 1.207 3.09 3.09 3.09 1.886 0 3.09-1.243 3.09-3.09v-7.35h6.862c5.993 0 9.422-3.656 9.422-8.593 0-6.032-4.184-8.594-9.385-8.594zm60.717 0c-2.187 0-3.617.868-3.617 3.62v20.918c0 1.847 1.206 3.09 3.09 3.09 1.885 0 3.09-1.243 3.09-3.09v-7.35h6.86c5.994 0 9.425-3.656 9.425-8.593 0-6.032-4.186-8.594-9.387-8.594zm54.426 0c-1.771 0-3.203.906-3.203 2.602 0 1.696 1.432 2.602 3.203 2.602h5.841v19.334c0 1.848 1.206 3.09 3.092 3.09 1.884 0 3.09-1.242 3.09-3.09v-19.334h5.842c1.77 0 3.205-.906 3.205-2.602 0-1.696-1.434-2.601-3.205-2.601zm58.382 0c-2.185 0-3.617.868-3.617 3.62v19.9c0 2.754 1.432 3.62 3.617 3.62h14.813c1.81 0 3.129-.529 3.129-2.489 0-1.958-1.318-2.486-3.129-2.486h-12.25v-6.559h10.478c1.622 0 2.903-.453 2.903-2.375s-1.281-2.373-2.903-2.373h-10.478v-5.882h11.95c1.807 0 3.128-.527 3.128-2.489 0-1.96-1.32-2.486-3.129-2.486zm52.541 0c-2.185 0-3.617.868-3.617 3.62v19.9c0 2.754 1.432 3.62 3.617 3.62h14.813c1.81 0 3.13-.529 3.13-2.489 0-1.958-1.32-2.486-3.13-2.486h-12.25v-6.559h10.48c1.62 0 2.9-.453 2.9-2.375s-1.28-2.373-2.9-2.373h-10.48v-5.882h11.95c1.807 0 3.128-.527 3.128-2.489 0-1.96-1.32-2.486-3.129-2.486zm-248.38 4.335c5.05 0 7.537 3.694 7.537 8.894 0 5.203-1.921 9.575-7.537 9.575-5.806 0-7.537-4.372-7.537-9.575 0-5.2 2.486-8.894 7.537-8.894zm118.912 0c5.05 0 7.539 3.694 7.539 8.894 0 5.203-1.922 9.575-7.54 9.575-5.803 0-7.536-4.372-7.536-9.575 0-5.2 2.486-8.894 7.537-8.894zm-94.037.416h5.127c3.053 0 4.974 1.13 4.974 3.844 0 2.336-1.845 3.843-4.332 3.843h-5.77zm60.718 0h5.127c3.054 0 4.975 1.13 4.975 3.844 0 2.336-1.847 3.843-4.334 3.843h-5.768zm-22.047 1.469h.075l3.506 10.894h-7.239z"
          style="fill:#175083;fill-opacity:1;fill-rule:nonzero;stroke:none;stroke-width:1.33333325"/>
    <path d="M246.236.023c-8.083-.38-15.986 4.012-19.707 11.775-4.946 10.332-.578 22.735 9.762 27.693 10.347 4.95 22.745.588 27.69-9.753 4.95-10.34.598-22.74-9.749-27.694a20.724 20.724 0 0 0-7.996-2.021zM207.77 23.679a11.027 11.027 0 0 0-10.47 6.254c-2.627 5.488-.307 12.08 5.186 14.715 5.496 2.63 12.085.31 14.711-5.184 2.628-5.495.317-12.08-5.18-14.71a11.017 11.017 0 0 0-4.247-1.075zm-25.5 4.86a4.777 4.777 0 0 0-4.528 2.704 4.775 4.775 0 0 0 2.238 6.366 4.774 4.774 0 1 0 2.29-9.07zm-67.749 1.564c-3.743-.175-7.402 1.858-9.12 5.443-2.287 4.787-.267 10.526 4.513 12.818 4.796 2.296 10.528.274 12.818-4.511 2.288-4.784.271-10.523-4.507-12.817a9.6 9.6 0 0 0-3.704-.933zM140 32.638a6.017 6.017 0 0 0-2.303 11.434c3 1.436 6.592.168 8.026-2.827a6.016 6.016 0 0 0-2.819-8.023 6.014 6.014 0 0 0-2.904-.584zm24.656 5.258c-4.415-.206-8.734 2.195-10.763 6.43-2.706 5.649-.32 12.416 5.328 15.124 5.648 2.7 12.415.326 15.119-5.326 2.715-5.653.327-12.418-5.317-15.125a11.307 11.307 0 0 0-4.367-1.103zM88.84 44.34a7.534 7.534 0 0 0-6.44 4.273c-1.8 3.766-.2 8.293 3.575 10.104 3.776 1.812 8.29.228 10.088-3.535 1.8-3.768.2-8.286-3.575-10.104a7.55 7.55 0 0 0-3.648-.738zm145.56 3.022a9.643 9.643 0 0 0-9.125 5.457c-2.297 4.79-.282 10.524 4.496 12.812 4.78 2.287 10.52.259 12.817-4.53 2.301-4.787.288-10.522-4.49-12.808a9.56 9.56 0 0 0-3.698-.931zm-43.962 2.218a5.973 5.973 0 0 0-5.665 3.383 5.969 5.969 0 0 0 2.807 7.957 5.964 5.964 0 1 0 5.152-10.758 5.932 5.932 0 0 0-2.295-.582zm20.724 1.356a4.272 4.272 0 0 0-2.049 8.117 4.27 4.27 0 1 0 2.05-8.117zm-80.428 2.172a6.684 6.684 0 0 0-2.552 12.7c3.326 1.595 7.322.19 8.912-3.138a6.676 6.676 0 0 0-3.14-8.912 6.639 6.639 0 0 0-3.22-.65zm-22.142 2.074a6.232 6.232 0 0 0-5.916 3.537 6.242 6.242 0 0 0 2.928 8.326 6.247 6.247 0 0 0 8.324-2.935 6.242 6.242 0 0 0-5.336-8.928zm-34.055 4.242a4.271 4.271 0 0 0-4.053 2.418 4.27 4.27 0 0 0 7.701 3.695 4.277 4.277 0 0 0-2.003-5.699 4.262 4.262 0 0 0-1.645-.414zm77.65 3.443a7.567 7.567 0 0 0-6.447 4.293c-1.81 3.767-.21 8.291 3.555 10.094A7.56 7.56 0 0 0 159.39 73.7a7.567 7.567 0 0 0-3.557-10.093 7.516 7.516 0 0 0-3.647-.739zm58.79 3.069a7.567 7.567 0 0 0-7.182 4.293c-1.805 3.77-.213 8.285 3.557 10.097a7.565 7.565 0 0 0 10.091-3.556 7.564 7.564 0 0 0-3.554-10.096 7.527 7.527 0 0 0-2.912-.738zm-29.112 1.998c-3.74-.175-7.399 1.858-9.115 5.447-2.292 4.787-.274 10.52 4.512 12.813 4.782 2.298 10.52.277 12.81-4.512 2.298-4.78.277-10.523-4.51-12.815a9.571 9.571 0 0 0-3.697-.933z"
          style="fill:#d8242b;fill-opacity:1;fill-rule:nonzero;stroke:none;stroke-width:1.33333325"/>
</svg>