<svg xmlns="http://www.w3.org/2000/svg" viewBox="0 0 700 700">
    <path fill-rule="evenodd"
          d="m351.17 32.668 69.418 175.58 188.42 11.668c.582 0 1.168.582 1.168 1.168 0 .582 0 1.168-.582 1.75l-145.83 120.75 47.25 183.17c0 .582 0 1.168-.582 1.75-.582.582-1.168.582-1.75 0l-158.68-101.5-159.83 101.5c-.582.582-1.168.582-1.75 0s-.582-1.168-.582-1.75l47.25-183.17-145.83-120.75c-.582-.582-.582-1.168-.582-1.75s.582-1.168 1.168-1.168l188.42-11.668 70.574-175.58c0-.582.582-1.168 1.168-1.168.582 0 1.168.582 1.168 1.168z"/>
</svg>